<?xml version="1.0" encoding="utf-8"?>
<!-- Generator: Adobe Illustrator 16.0.0, SVG Export Plug-In . SVG Version: 6.00 Build 0)  -->
<!DOCTYPE svg PUBLIC "-//W3C//DTD SVG 1.1//EN" "http://www.w3.org/Graphics/SVG/1.1/DTD/svg11.dtd">
<svg version="1.1" id="Layer_1" xmlns="http://www.w3.org/2000/svg" xmlns:xlink="http://www.w3.org/1999/xlink" x="0px" y="0px"
	 width="595.28px" height="841.89px" viewBox="0 0 595.28 841.89" enable-background="new 0 0 595.28 841.89" xml:space="preserve">
<g>
	<g>
		<path d="M349.71,511.322H244.46c-36.673,0-66.512-29.84-66.512-66.52c0-36.679,29.839-66.521,66.512-66.521
			c12.148,0,23.864,3.296,34.033,9.373c14.461-24.945,41.378-41.086,71.217-41.086c45.427,0,82.375,36.952,82.375,82.379
			C432.085,474.367,395.137,511.322,349.71,511.322z M244.46,407.501c-20.567,0-37.295,16.734-37.295,37.302
			c0,20.574,16.728,37.296,37.295,37.296h105.25c29.315,0,53.159-23.844,53.159-53.151c0-29.322-23.844-53.163-53.159-53.163
			c-24.034,0-45.126,16.247-51.311,39.507c-1.396,5.281-5.622,9.33-10.949,10.51c-5.353,1.166-10.883-0.708-14.369-4.888
			C265.958,412.396,255.521,407.501,244.46,407.501z"/>
		<path d="M349.71,514.677H244.46c-38.527,0-69.867-31.346-69.867-69.874c0-38.527,31.339-69.876,69.867-69.876
			c11.493,0,22.783,2.831,32.854,8.207c15.634-24.705,43.075-39.92,72.396-39.92c47.274,0,85.73,38.459,85.73,85.734
			C435.44,476.215,396.984,514.677,349.71,514.677z M244.46,381.636c-34.825,0-63.157,28.335-63.157,63.167
			c0,34.832,28.332,63.165,63.157,63.165h105.25c43.572,0,79.021-35.448,79.021-79.021c0-43.573-35.448-79.024-79.021-79.024
			c-28.044,0-54.221,15.103-68.314,39.422l-1.704,2.936l-2.922-1.743C267.033,384.712,255.861,381.636,244.46,381.636z
			 M349.71,485.453H244.46c-22.415,0-40.65-18.234-40.65-40.65c0-22.422,18.235-40.656,40.65-40.656
			c12.057,0,23.425,5.327,31.196,14.611c2.66,3.191,7.004,4.672,11.08,3.768c4.108-0.911,7.338-4.01,8.419-8.092
			c6.579-24.735,29.007-42.004,54.555-42.004c31.163,0,56.514,25.354,56.514,56.518C406.224,460.103,380.873,485.453,349.71,485.453
			z M244.46,410.855c-18.713,0-33.94,15.228-33.94,33.947c0,18.714,15.228,33.941,33.94,33.941h105.25
			c27.46,0,49.804-22.344,49.804-49.797c0-27.468-22.344-49.808-49.804-49.808c-22.507,0-42.275,15.224-48.067,37.017
			c-1.724,6.507-6.88,11.467-13.465,12.922c-6.585,1.441-13.432-0.931-17.671-6.016C264.019,415.305,254.524,410.855,244.46,410.855
			z"/>
	</g>
</g>
</svg>
