<?xml version="1.0" encoding="utf-8"?>
<!-- Generator: Adobe Illustrator 16.0.0, SVG Export Plug-In . SVG Version: 6.00 Build 0)  -->
<!DOCTYPE svg PUBLIC "-//W3C//DTD SVG 1.1//EN" "http://www.w3.org/Graphics/SVG/1.1/DTD/svg11.dtd">
<svg version="1.1" id="Layer_1" xmlns="http://www.w3.org/2000/svg" xmlns:xlink="http://www.w3.org/1999/xlink" x="0px" y="0px"
	 width="595.28px" height="841.89px" viewBox="0 0 595.28 841.89" enable-background="new 0 0 595.28 841.89" xml:space="preserve">
<g>
	<g>
		<path d="M305.483,502.906c-8.615,0-17.23-3.289-23.807-9.865c-13.153-13.153-13.153-34.461,0-47.613l80.97-80.957
			c13.152-13.14,34.461-13.14,47.613,0.013s13.152,34.461,0,47.614l-80.97,80.957C322.714,499.617,314.099,502.906,305.483,502.906z
			"/>
	</g>
	<g>
		<path d="M305.641,502.906c-8.615,0-17.229-3.289-23.806-9.852l-80.969-80.957c-13.153-13.153-13.153-34.461,0-47.614
			c13.126-13.153,34.46-13.153,47.613-0.013l80.97,80.957c13.153,13.152,13.153,34.46,0,47.613
			C322.885,499.617,314.256,502.906,305.641,502.906z"/>
	</g>
</g>
</svg>
