<?xml version="1.0" encoding="utf-8"?>
<!-- Generator: Adobe Illustrator 16.0.0, SVG Export Plug-In . SVG Version: 6.00 Build 0)  -->
<!DOCTYPE svg PUBLIC "-//W3C//DTD SVG 1.1//EN" "http://www.w3.org/Graphics/SVG/1.1/DTD/svg11.dtd">
<svg version="1.1" id="Layer_1" xmlns="http://www.w3.org/2000/svg" xmlns:xlink="http://www.w3.org/1999/xlink" x="0px" y="0px"
	 width="595.28px" height="841.89px" viewBox="0 0 595.28 841.89" enable-background="new 0 0 595.28 841.89" xml:space="preserve">
<g>
	<g>
		<path d="M379.249,515.223H196.438c-28.618,0-51.897-23.282-51.897-51.899c0-28.613,23.279-51.894,51.897-51.894
			c5.491,0,10.895,0.863,16.045,2.544c7.085-29.643,33.539-51.296,65.204-51.296c12.631,0,24.979,3.595,35.61,10.261
			c16.341-19.294,40.361-30.577,65.952-30.577c47.658,0,86.428,38.774,86.428,86.433
			C465.677,476.45,426.907,515.223,379.249,515.223z M196.438,429.908c-18.425,0-33.414,14.989-33.414,33.415
			c0,18.424,14.989,33.419,33.414,33.419h182.811c37.464,0,67.943-30.481,67.943-67.947c0-37.465-30.479-67.95-67.943-67.95
			c-22.648,0-43.733,11.24-56.406,30.061c-1.468,2.183-3.803,3.635-6.412,3.998c-2.579,0.352-5.237-0.415-7.247-2.122
			c-8.797-7.499-19.983-11.623-31.497-11.623c-26.28,0-47.607,20.599-48.55,46.892c-0.12,3.34-2.032,6.354-5.002,7.881
			c-2.963,1.533-6.524,1.343-9.323-0.5C209.34,431.819,202.985,429.908,196.438,429.908z"/>
	</g>
</g>
</svg>
