<?xml version="1.0" encoding="utf-8"?>
<!-- Generator: Adobe Illustrator 16.0.0, SVG Export Plug-In . SVG Version: 6.00 Build 0)  -->
<!DOCTYPE svg PUBLIC "-//W3C//DTD SVG 1.1//EN" "http://www.w3.org/Graphics/SVG/1.1/DTD/svg11.dtd">
<svg version="1.1" id="Layer_1" xmlns="http://www.w3.org/2000/svg" xmlns:xlink="http://www.w3.org/1999/xlink" x="0px" y="0px"
	 width="595.28px" height="841.89px" viewBox="0 0 595.28 841.89" enable-background="new 0 0 595.28 841.89" xml:space="preserve">
<g>
	<path d="M298,648.299c-3.894,0-7.051-3.156-7.051-7.051V378.274c0-3.894,3.157-7.051,7.051-7.051c3.893,0,7.051,3.157,7.051,7.051
		v262.974C305.051,645.143,301.893,648.299,298,648.299z"/>
</g>
<g>
	<path d="M273.496,394.202c-13.882,0-26.217-5.374-33.842-14.742c-5.459-6.705-11.124-18.766-7.109-38.138
		c3.132-15.206,15.155-27.686,25.763-38.696l2.891-3.01c16.81-17.589,32-29.427,32.64-29.922l4.243-3.294l4.276,3.255
		c0.645,0.49,15.936,12.183,32.904,29.613l2.773,2.826c10.779,10.938,22.998,23.337,26.305,38.589
		c4.197,19.393-1.385,31.519-6.805,38.278c-7.588,9.46-19.947,14.932-33.904,15.009c-11.572,0-19.742-5.723-24.985-12.15
		c-5.195,6.513-13.33,12.337-24.885,12.38L273.496,394.202z M298.163,284.193c-5.577,4.65-15.949,13.671-26.849,25.077l-2.937,3.059
		c-9.291,9.644-19.821,20.575-22.138,31.822c-2.329,11.241-0.896,20.148,4.258,26.48c4.959,6.091,13.342,9.584,22.998,9.584l0.201,0
		c13.591-0.05,17.985-14.208,18.165-14.811l6.747-22.521l6.671,22.503c0.173,0.557,4.667,14.598,18.159,14.599
		c9.836-0.054,18.246-3.618,23.186-9.775c5.121-6.383,6.482-15.322,4.047-26.566c-2.448-11.288-13.15-22.152-22.596-31.738
		l-2.828-2.879C314.236,297.715,303.785,288.791,298.163,284.193z"/>
</g>
</svg>
